# xmcd
# 
# Track frame offsets:
#     150
#     26325
#     44633
#     61021
# 
# Disc length: 1319
# 
# Revision: 0
# Processed by: cddbd v1.5.2PL0 Copyright (c) Steve Scherf et al.
# Submitted via: fre:ac v1.0.17
# 
DISCID=2a052504
DTITLE=The Skateboard Kids - Spiritus
DYEAR=2015
DGENRE=J-Indie
TTITLE0=She Say Sea Side
TTITLE1=Somewhere
TTITLE2=Sleepy Sunday
TTITLE3=Saihate
EXTD=
EXTT0=
EXTT1=
EXTT2=
EXTT3=
PLAYORDER=
